<svg width="340" height="37" viewBox="0 0 340 37" fill="none" xmlns="http://www.w3.org/2000/svg">
<path d="M5.83594 1.875L11.3906 18.9375L17.3906 1.875H22.7812V36H18.5625V22.3828L18.9141 8.13281L12.6094 26.5078H10.125L4.33594 8.625L4.6875 22.3828V36H0.46875V1.875H5.83594ZM46.5703 36C46.3984 35.6719 46.2578 35.2656 46.1484 34.7812C46.0547 34.2812 45.9844 33.7656 45.9375 33.2344C45.5 33.6719 45.0078 34.0859 44.4609 34.4766C43.9297 34.8672 43.3438 35.2109 42.7031 35.5078C42.0469 35.8047 41.3516 36.0391 40.6172 36.2109C39.8828 36.3828 39.1016 36.4688 38.2734 36.4688C36.9297 36.4688 35.7109 36.2734 34.6172 35.8828C33.5391 35.4922 32.625 34.9609 31.875 34.2891C31.1094 33.6328 30.5156 32.8516 30.0938 31.9453C29.6875 31.0234 29.4844 30.0312 29.4844 28.9688C29.4844 27.5781 29.7578 26.3594 30.3047 25.3125C30.8672 24.2656 31.6562 23.3906 32.6719 22.6875C33.6875 22 34.9062 21.4844 36.3281 21.1406C37.7656 20.7969 39.3672 20.625 41.1328 20.625H45.8672V18.6328C45.8672 17.8672 45.7266 17.1797 45.4453 16.5703C45.1641 15.9609 44.7656 15.4375 44.25 15C43.7344 14.5781 43.1016 14.25 42.3516 14.0156C41.6172 13.7812 40.7891 13.6641 39.8672 13.6641C39.0078 13.6641 38.2344 13.7734 37.5469 13.9922C36.875 14.2109 36.3047 14.5 35.8359 14.8594C35.3672 15.2188 35 15.6484 34.7344 16.1484C34.4844 16.6328 34.3594 17.1406 34.3594 17.6719H30C30.0156 16.75 30.25 15.8438 30.7031 14.9531C31.1719 14.0625 31.8438 13.2578 32.7188 12.5391C33.5781 11.8359 34.625 11.2656 35.8594 10.8281C37.1094 10.3906 38.5234 10.1719 40.1016 10.1719C41.5391 10.1719 42.875 10.3516 44.1094 10.7109C45.3438 11.0547 46.4141 11.5781 47.3203 12.2812C48.2109 13 48.9141 13.8906 49.4297 14.9531C49.9453 16.0156 50.2031 17.2578 50.2031 18.6797V30.4688C50.2031 31.3125 50.2812 32.2109 50.4375 33.1641C50.5938 34.1016 50.8125 34.9219 51.0938 35.625V36H46.5703ZM38.9062 32.6953C39.75 32.6953 40.5391 32.5859 41.2734 32.3672C42.0078 32.1484 42.6797 31.8594 43.2891 31.5C43.8828 31.1406 44.3984 30.7344 44.8359 30.2812C45.2734 29.8125 45.6172 29.3281 45.8672 28.8281V23.6953H41.8359C40.3359 23.6953 39.0234 23.8281 37.8984 24.0938C36.7891 24.3438 35.9062 24.7344 35.25 25.2656C34.7812 25.6406 34.4219 26.0859 34.1719 26.6016C33.9375 27.1172 33.8203 27.7031 33.8203 28.3594C33.8203 28.9844 33.9219 29.5625 34.125 30.0938C34.3438 30.625 34.6641 31.0781 35.0859 31.4531C35.5078 31.8438 36.0391 32.1484 36.6797 32.3672C37.3203 32.5859 38.0625 32.6953 38.9062 32.6953ZM75.3516 10.1719C76.1484 10.1719 76.9766 10.2266 77.8359 10.3359C78.7109 10.4453 79.3672 10.5938 79.8047 10.7812L79.2188 15.0234C78.375 14.8359 77.5703 14.7031 76.8047 14.625C76.0547 14.5312 75.2656 14.4844 74.4375 14.4844C73.375 14.4844 72.4141 14.6172 71.5547 14.8828C70.6953 15.1328 69.9453 15.5078 69.3047 16.0078C68.7266 16.4453 68.2188 16.9844 67.7812 17.625C67.3594 18.25 67.0078 18.9531 66.7266 19.7344V36H62.3672V10.6406H66.4922L66.6797 14.0391L66.7031 14.6719C67.7344 13.2812 68.9688 12.1875 70.4062 11.3906C71.8594 10.5781 73.5078 10.1719 75.3516 10.1719ZM88.2422 10.6406H101.203V32.25H109.477V36H88.2422V32.25H96.8672V14.4141H88.2422V10.6406ZM96.3047 3.98438C96.3047 3.60938 96.3594 3.25781 96.4688 2.92969C96.5938 2.60156 96.7812 2.32031 97.0312 2.08594C97.2344 1.88281 97.4922 1.72656 97.8047 1.61719C98.1328 1.49219 98.5 1.42969 98.9062 1.42969C99.3125 1.42969 99.6719 1.49219 99.9844 1.61719C100.297 1.72656 100.555 1.88281 100.758 2.08594C101.008 2.30469 101.195 2.57812 101.32 2.90625C101.445 3.23438 101.508 3.59375 101.508 3.98438C101.508 4.6875 101.289 5.27344 100.852 5.74219C100.414 6.21094 99.7656 6.44531 98.9062 6.44531C98.0312 6.44531 97.375 6.21094 96.9375 5.74219C96.5156 5.27344 96.3047 4.6875 96.3047 3.98438ZM115.172 23.0859C115.172 21.2578 115.438 19.5625 115.969 18C116.5 16.4219 117.266 15.0547 118.266 13.8984C119.25 12.7422 120.453 11.8359 121.875 11.1797C123.297 10.5078 124.898 10.1719 126.68 10.1719C128.477 10.1719 130.086 10.5078 131.508 11.1797C132.945 11.8359 134.164 12.7422 135.164 13.8984C136.148 15.0547 136.906 16.4219 137.438 18C137.969 19.5625 138.234 21.2578 138.234 23.0859V23.6016C138.234 25.4297 137.969 27.125 137.438 28.6875C136.906 30.25 136.148 31.6094 135.164 32.7656C134.164 33.9219 132.953 34.8281 131.531 35.4844C130.109 36.1406 128.508 36.4688 126.727 36.4688C124.93 36.4688 123.312 36.1406 121.875 35.4844C120.453 34.8281 119.25 33.9219 118.266 32.7656C117.266 31.6094 116.5 30.25 115.969 28.6875C115.438 27.125 115.172 25.4297 115.172 23.6016V23.0859ZM119.508 23.6016C119.508 24.8516 119.656 26.0469 119.953 27.1875C120.25 28.3125 120.703 29.3047 121.312 30.1641C121.906 31.0234 122.656 31.7031 123.562 32.2031C124.469 32.7031 125.523 32.9531 126.727 32.9531C127.914 32.9531 128.953 32.7031 129.844 32.2031C130.75 31.7031 131.508 31.0234 132.117 30.1641C132.711 29.3047 133.156 28.3125 133.453 27.1875C133.75 26.0469 133.898 24.8516 133.898 23.6016V23.0859C133.898 21.8516 133.742 20.6719 133.43 19.5469C133.133 18.4062 132.688 17.4062 132.094 16.5469C131.484 15.6875 130.727 15.0078 129.82 14.5078C128.93 13.9922 127.883 13.7344 126.68 13.7344C125.477 13.7344 124.43 13.9922 123.539 14.5078C122.648 15.0078 121.906 15.6875 121.312 16.5469C120.703 17.4062 120.25 18.4062 119.953 19.5469C119.656 20.6719 119.508 21.8516 119.508 23.0859V23.6016ZM190.336 27.1641H178.945L176.203 36H171.867L182.883 1.875H186.516L197.344 36H193.031L190.336 27.1641ZM180.117 23.3906H189.188L184.688 8.57812L180.117 23.3906ZM211.523 36L201.094 10.6406H205.547L212.812 29.7656L213.211 31.3359L213.633 29.7656L220.734 10.6406H225.164L214.828 36H211.523ZM232.383 10.6406H245.344V32.25H253.617V36H232.383V32.25H241.008V14.4141H232.383V10.6406ZM240.445 3.98438C240.445 3.60938 240.5 3.25781 240.609 2.92969C240.734 2.60156 240.922 2.32031 241.172 2.08594C241.375 1.88281 241.633 1.72656 241.945 1.61719C242.273 1.49219 242.641 1.42969 243.047 1.42969C243.453 1.42969 243.812 1.49219 244.125 1.61719C244.438 1.72656 244.695 1.88281 244.898 2.08594C245.148 2.30469 245.336 2.57812 245.461 2.90625C245.586 3.23438 245.648 3.59375 245.648 3.98438C245.648 4.6875 245.43 5.27344 244.992 5.74219C244.555 6.21094 243.906 6.44531 243.047 6.44531C242.172 6.44531 241.516 6.21094 241.078 5.74219C240.656 5.27344 240.445 4.6875 240.445 3.98438ZM261.211 0H274.172V32.25H282.445V36H261.211V32.25H269.836V3.77344H261.211V0ZM300.562 36.4688C298.781 36.4688 297.141 36.1641 295.641 35.5547C294.156 34.9453 292.883 34.0938 291.82 33C290.758 31.9062 289.93 30.6094 289.336 29.1094C288.742 27.6094 288.445 25.9766 288.445 24.2109V23.2266C288.445 21.1797 288.773 19.3516 289.43 17.7422C290.086 16.1172 290.961 14.7422 292.055 13.6172C293.133 12.5078 294.359 11.6562 295.734 11.0625C297.125 10.4688 298.547 10.1719 300 10.1719C301.828 10.1719 303.422 10.4922 304.781 11.1328C306.156 11.7578 307.297 12.625 308.203 13.7344C309.109 14.8594 309.781 16.1797 310.219 17.6953C310.672 19.2109 310.898 20.8516 310.898 22.6172V24.5625H292.781V24.7266C292.891 25.9609 293.133 27.0469 293.508 27.9844C293.898 28.9219 294.43 29.75 295.102 30.4688C295.789 31.2344 296.617 31.8359 297.586 32.2734C298.555 32.7109 299.625 32.9297 300.797 32.9297C302.344 32.9297 303.719 32.6172 304.922 31.9922C306.125 31.3672 307.125 30.5391 307.922 29.5078L310.57 31.5703C309.727 32.8516 308.461 33.9922 306.773 34.9922C305.102 35.9766 303.031 36.4688 300.562 36.4688ZM300 13.7344C299.125 13.7344 298.297 13.8984 297.516 14.2266C296.734 14.5391 296.031 15 295.406 15.6094C294.781 16.2344 294.25 17 293.812 17.9062C293.391 18.7969 293.094 19.8281 292.922 21H306.562V20.7891C306.562 20.0078 306.414 19.1719 306.117 18.2812C305.82 17.375 305.406 16.5938 304.875 15.9375C304.344 15.2812 303.672 14.75 302.859 14.3438C302.062 13.9375 301.109 13.7344 300 13.7344ZM335.039 29.2734C335.039 28.7578 334.938 28.2969 334.734 27.8906C334.531 27.4688 334.188 27.0859 333.703 26.7422C333.219 26.3984 332.578 26.0859 331.781 25.8047C330.984 25.5078 329.992 25.2422 328.805 25.0078C327.352 24.7109 326.023 24.3516 324.82 23.9297C323.633 23.5078 322.617 23 321.773 22.4062C320.914 21.8281 320.25 21.1484 319.781 20.3672C319.312 19.5703 319.078 18.6484 319.078 17.6016C319.078 16.5703 319.32 15.6094 319.805 14.7188C320.289 13.8125 320.969 13.0234 321.844 12.3516C322.719 11.6797 323.758 11.1484 324.961 10.7578C326.18 10.3672 327.516 10.1719 328.969 10.1719C330.531 10.1719 331.938 10.375 333.188 10.7812C334.438 11.1875 335.5 11.75 336.375 12.4688C337.25 13.1875 337.922 14.0312 338.391 15C338.875 15.9531 339.117 16.9844 339.117 18.0938H334.781C334.781 17.5469 334.641 17.0156 334.359 16.5C334.078 15.9688 333.688 15.5 333.188 15.0938C332.688 14.6875 332.078 14.3594 331.359 14.1094C330.656 13.8594 329.859 13.7344 328.969 13.7344C328.047 13.7344 327.234 13.8359 326.531 14.0391C325.844 14.2422 325.273 14.5156 324.82 14.8594C324.352 15.2031 324 15.6016 323.766 16.0547C323.531 16.5078 323.414 16.9766 323.414 17.4609C323.414 17.9609 323.508 18.4062 323.695 18.7969C323.883 19.1875 324.211 19.5391 324.68 19.8516C325.133 20.1641 325.742 20.4453 326.508 20.6953C327.289 20.9453 328.273 21.1875 329.461 21.4219C331.023 21.75 332.422 22.1328 333.656 22.5703C334.891 22.9922 335.93 23.5 336.773 24.0938C337.617 24.7031 338.258 25.4062 338.695 26.2031C339.148 27 339.375 27.9219 339.375 28.9688C339.375 30.0938 339.117 31.1172 338.602 32.0391C338.102 32.9609 337.398 33.75 336.492 34.4062C335.586 35.0625 334.5 35.5703 333.234 35.9297C331.969 36.2891 330.586 36.4688 329.086 36.4688C327.367 36.4688 325.836 36.2422 324.492 35.7891C323.148 35.3203 322.016 34.7031 321.094 33.9375C320.156 33.1875 319.438 32.3125 318.938 31.3125C318.453 30.3125 318.211 29.2734 318.211 28.1953H322.547C322.609 29.0859 322.844 29.8359 323.25 30.4453C323.672 31.0547 324.195 31.5469 324.82 31.9219C325.43 32.2969 326.109 32.5625 326.859 32.7188C327.609 32.875 328.352 32.9531 329.086 32.9531C330.242 32.9531 331.25 32.8203 332.109 32.5547C332.969 32.2734 333.641 31.8906 334.125 31.4062C334.422 31.1094 334.648 30.7812 334.805 30.4219C334.961 30.0625 335.039 29.6797 335.039 29.2734Z" fill="black"/>
</svg>
