<svg width="481" height="144" viewBox="0 0 481 144" fill="none" xmlns="http://www.w3.org/2000/svg">
<rect width="481" height="144" fill="white"/>
<path d="M90.3828 83.4375C90.3203 84.8594 88.5938 85.7266 85.2031 86.0391C85.0781 86.2891 85.0781 86.6562 85.2031 87.1406C88.1562 87.0469 90.25 87 91.4844 87C93.4375 87 95.6641 87.0469 98.1641 87.1406C98.2891 86.6562 98.2891 86.2891 98.1641 86.0391C94.7422 85.7266 93.0156 84.8594 92.9844 83.4375C92.8281 78.5781 92.75 74.3438 92.75 70.7344C92.75 65.7969 92.8125 61.4297 92.9375 57.6328H93.1719L104.609 86.4141H104.844L115.531 58.1953H115.742C115.898 62.8984 115.977 67.0781 115.977 70.7344C115.977 75.8125 115.898 80.1484 115.742 83.7422C115.711 84.1484 115.523 84.5 115.18 84.7969C114.852 85.0781 114.359 85.3047 113.703 85.4766C113.047 85.6328 112.492 85.7422 112.039 85.8047C111.586 85.8672 111.008 85.9297 110.305 85.9922C110.18 86.2422 110.18 86.6094 110.305 87.0938C112.961 87 115.68 86.9531 118.461 86.9531C121.789 86.9531 124.992 87 128.07 87.0938C128.195 86.8125 128.195 86.4453 128.07 85.9922C122.883 85.6797 120.273 84.9453 120.242 83.7891C120.055 78.8828 119.961 73.9531 119.961 69C119.961 64.2031 120.023 59.8359 120.148 55.8984C120.18 54.7422 122.789 54.0078 127.977 53.6953C128.102 53.2422 128.102 52.875 127.977 52.5938C124.898 52.6875 120.805 52.7344 115.695 52.7344L105.711 78.7969L96.1016 52.7344C92.2891 52.7344 88.9141 52.6719 85.9766 52.5469C85.8203 52.8594 85.8203 53.1562 85.9766 53.4375C87.8359 53.7031 89.0469 54.0938 89.6094 54.6094C90.1875 55.1094 90.4922 56.2734 90.5234 58.1016C90.6328 61.9453 90.6875 65.5781 90.6875 69C90.6875 73.7344 90.5859 78.5469 90.3828 83.4375ZM89.4219 83.4375C89.625 78.5156 89.7266 73.7031 89.7266 69C89.7266 65.5781 89.6719 61.9453 89.5625 58.1016C89.5312 56.6641 89.25 55.7422 88.7188 55.3359C88.2031 54.9141 87.0781 54.5859 85.3438 54.3516C84.9062 53.3984 84.9219 52.4609 85.3906 51.5391C88.9844 51.6953 93.6562 51.7734 99.4062 51.7734L107.094 72.3047L115.016 51.7734C119.203 51.7734 123.828 51.7109 128.891 51.5859C129.203 52.6016 129.234 53.6094 128.984 54.6094C125.531 54.9531 123.789 55.4141 123.758 55.9922C123.617 58.9297 123.547 63.2656 123.547 69C123.547 74.9219 123.648 79.8203 123.852 83.6953C123.883 84.2734 125.625 84.7344 129.078 85.0781C129.328 86.0781 129.297 87.0859 128.984 88.1016C123.922 87.9766 120.977 87.9141 120.148 87.9141C118.898 87.9141 115.398 87.9766 109.648 88.1016C109.258 87.0078 109.258 86 109.648 85.0781C113.039 84.7344 114.75 84.2891 114.781 83.7422C114.938 80.0859 115.016 75.75 115.016 70.7344C115.016 66.8281 115 63.9609 114.969 62.1328L105.5 87.375H103.93L93.7109 61.6172V70.7344C93.7109 74.3438 93.7891 78.5781 93.9453 83.4375C93.9766 84.2812 95.6875 84.8438 99.0781 85.125C99.4688 86.0625 99.4688 87.0703 99.0781 88.1484C94.4062 87.9609 89.5547 87.9609 84.5234 88.1484C84.1484 87.0703 84.1484 86.0625 84.5234 85.125C87.7578 84.8125 89.3906 84.25 89.4219 83.4375ZM137.984 69.9609C138.719 70.0859 139.297 70.375 139.719 70.8281C140.156 71.2656 140.375 71.8281 140.375 72.5156C140.375 73.3438 140.102 74.0312 139.555 74.5781C139.008 75.1094 138.289 75.375 137.398 75.375C136.477 75.375 135.641 75.0469 134.891 74.3906C134.141 73.7344 133.766 72.8047 133.766 71.6016C133.766 69.5547 134.734 67.8984 136.672 66.6328C138.625 65.3672 141.172 64.7344 144.312 64.7344C147.297 64.7344 149.391 65.3359 150.594 66.5391C151.812 67.7266 152.422 69.7344 152.422 72.5625V80.7656L153.922 80.7188C155.203 80.8125 156.094 81.4219 156.594 82.5469L155.844 83.8359C155.359 84.5703 154.953 85.1406 154.625 85.5469C154.312 85.9375 153.859 86.3828 153.266 86.8828C152.672 87.3828 151.977 87.7422 151.18 87.9609C150.383 88.1797 149.453 88.2891 148.391 88.2891C147.078 88.2891 146.086 87.7969 145.414 86.8125C143.727 88.0312 141.523 88.6406 138.805 88.6406C137.617 88.6406 136.602 88.4531 135.758 88.0781C134.93 87.7188 134.32 87.2344 133.93 86.625C133.555 86.0156 133.289 85.4453 133.133 84.9141C132.977 84.3828 132.898 83.8438 132.898 83.2969C132.898 81 133.672 79.2812 135.219 78.1406C136.766 77 139.891 75.8281 144.594 74.625V72.0703C144.594 70.8203 144.328 69.9062 143.797 69.3281C143.281 68.75 142.609 68.4609 141.781 68.4609C140.016 68.4609 138.75 68.9609 137.984 69.9609ZM145.555 76.8281V81.7266C144.055 83.7109 142.523 84.7031 140.961 84.7031C140.055 84.7031 139.312 84.4844 138.734 84.0469C138.172 83.6094 137.891 82.9922 137.891 82.1953C137.891 80.9141 138.414 79.8594 139.461 79.0312C140.523 78.2031 142.555 77.4688 145.555 76.8281ZM144.594 81.4219V78.5625C142.328 79.3906 141.195 80.6016 141.195 82.1953C141.195 82.8672 141.438 83.3359 141.922 83.6016C142.75 83.3047 143.641 82.5781 144.594 81.4219ZM137.398 73.3125C136.852 73.3125 136.469 72.9141 136.25 72.1172C135.938 70.8359 136.32 69.7188 137.398 68.7656C138.461 67.8281 140.062 67.3594 142.203 67.3594C143.219 67.3594 144.031 67.7578 144.641 68.5547C145.25 69.3359 145.555 70.5078 145.555 72.0703V75.3281C140.945 76.5156 137.844 77.6406 136.25 78.7031C134.656 79.75 133.859 81.2812 133.859 83.2969C133.859 84.3594 134.219 85.3594 134.938 86.2969C135.656 87.2188 136.945 87.6797 138.805 87.6797C139.539 87.6797 140.227 87.5625 140.867 87.3281C141.523 87.0938 142.195 86.7188 142.883 86.2031C143.586 85.6719 144.016 85.3359 144.172 85.1953C144.328 85.0547 144.586 84.8125 144.945 84.4688C145.32 84.1094 145.523 83.9141 145.555 83.8828C145.758 86.1797 146.703 87.3281 148.391 87.3281C148.812 87.3281 149.297 87.2188 149.844 87C150.391 86.7812 150.938 86.3516 151.484 85.7109C152.047 85.0703 152.398 84.6484 152.539 84.4453C152.695 84.2266 152.922 83.8906 153.219 83.4375C153.516 82.9688 153.734 82.6484 153.875 82.4766C153.672 82.0391 153.281 81.7891 152.703 81.7266C151.844 83.0391 150.969 83.6797 150.078 83.6484C149.438 83.6172 149.117 83.1641 149.117 82.2891V72.5625C149.117 70.0625 148.625 68.2969 147.641 67.2656C146.672 66.2188 145 65.6953 142.625 65.6953C140.484 65.6953 138.625 66.25 137.047 67.3594C135.484 68.4531 134.703 69.8672 134.703 71.6016C134.703 72.4922 134.977 73.1875 135.523 73.6875C136.07 74.1719 136.695 74.4141 137.398 74.4141C137.617 74.1016 137.617 73.7344 137.398 73.3125ZM167.609 73.8047C168 72.3672 168.805 70.9688 170.023 69.6094C171.242 68.25 172.484 67.5703 173.75 67.5703C175.234 67.5703 175.977 68.0469 175.977 69C175.977 69.8594 175.57 70.4062 174.758 70.6406C174.539 70.9531 174.539 71.3203 174.758 71.7422C175.602 71.7422 176.289 71.4844 176.82 70.9688C177.367 70.4531 177.641 69.7344 177.641 68.8125C177.641 67.8438 177.344 67.0859 176.75 66.5391C176.172 65.9766 175.414 65.6953 174.477 65.6953C173.258 65.6953 172.031 66.1875 170.797 67.1719C169.578 68.1406 168.516 69.2266 167.609 70.4297V66.3984C167.484 66.1484 167.219 65.9453 166.812 65.7891C164.719 66.7734 162.297 67.4141 159.547 67.7109C159.453 68.0859 159.453 68.4531 159.547 68.8125C161.656 68.9062 163.164 69.2266 164.07 69.7734C164.195 75.6016 164.18 80.2734 164.023 83.7891C163.992 84.9453 162.664 85.6953 160.039 86.0391C159.805 86.4609 159.805 86.8281 160.039 87.1406C164.133 86.9531 168.594 86.9531 173.422 87.1406C173.641 86.8281 173.641 86.4609 173.422 86.0391C169.719 85.6953 167.852 84.9453 167.82 83.7891C167.68 80.6172 167.609 77.2891 167.609 73.8047ZM171.125 83.7422C171.156 84.3516 172.211 84.8281 174.289 85.1719C174.805 86.2031 174.773 87.1953 174.195 88.1484C167.57 87.9297 162.562 87.8828 159.172 88.0078C158.594 87.0859 158.562 86.1406 159.078 85.1719C161.703 84.8281 163.031 84.3516 163.062 83.7422C163.25 79.2891 163.266 74.8203 163.109 70.3359C162.078 70.0234 160.656 69.8203 158.844 69.7266C158.484 68.7891 158.484 67.7969 158.844 66.75C161.453 66.5938 164.219 65.8906 167.141 64.6406C168.828 64.8281 170.094 65.3359 170.938 66.1641C172.25 65.2109 173.43 64.7344 174.477 64.7344C175.695 64.7344 176.688 65.0938 177.453 65.8125C178.219 66.5312 178.602 67.5312 178.602 68.8125C178.602 70.0312 178.242 70.9844 177.523 71.6719C176.805 72.3594 175.883 72.7031 174.758 72.7031C173.711 72.7031 172.836 72.3516 172.133 71.6484C171.492 72.5078 171.094 73.2891 170.938 73.9922C170.938 77.3828 171 80.6328 171.125 83.7422ZM189.359 54.0703C192.891 54.0703 194.656 55.3516 194.656 57.9141C194.656 60.4766 192.891 61.7578 189.359 61.7578C188.828 61.7578 188.328 61.6562 187.859 61.4531C187.406 61.25 187.008 60.9766 186.664 60.6328C186.32 60.2734 186.047 59.8594 185.844 59.3906C185.641 58.9219 185.539 58.4297 185.539 57.9141C185.539 57.3984 185.641 56.9062 185.844 56.4375C186.047 55.9688 186.32 55.5625 186.664 55.2188C187.008 54.8594 187.406 54.5781 187.859 54.375C188.328 54.1719 188.828 54.0703 189.359 54.0703ZM187.203 55.8984C186.734 56.4453 186.5 57.1172 186.5 57.9141C186.5 58.3203 186.562 58.7031 186.688 59.0625C186.828 59.4062 187.016 59.7109 187.25 59.9766C187.484 60.2266 187.75 60.4297 188.047 60.5859C188.359 60.7266 188.688 60.7969 189.031 60.7969C189.359 60.7969 189.68 60.7266 189.992 60.5859C190.305 60.4297 190.578 60.2266 190.812 59.9766C191.047 59.7109 191.234 59.4062 191.375 59.0625C191.516 58.7031 191.586 58.3203 191.586 57.9141C191.586 57.5078 191.516 57.1328 191.375 56.7891C191.234 56.4297 191.047 56.125 190.812 55.875C190.578 55.6094 190.305 55.4062 189.992 55.2656C189.68 55.1094 189.359 55.0312 189.031 55.0312C188.703 55.0312 188.383 55.1016 188.07 55.2422C187.758 55.3828 187.469 55.6016 187.203 55.8984ZM196.672 85.9219C192.953 85.5781 191.078 84.8281 191.047 83.6719C190.891 78.9844 190.828 73.2266 190.859 66.3984C190.734 66.1484 190.461 65.9453 190.039 65.7891C187.867 66.8047 185.609 67.4453 183.266 67.7109C183.172 68.0859 183.172 68.4531 183.266 68.8125C185.031 68.9062 186.375 69.2266 187.297 69.7734C187.438 75.6016 187.422 80.2344 187.25 83.6719C187.219 84.8281 185.891 85.5781 183.266 85.9219C183.109 86.3125 183.109 86.6953 183.266 87.0703C187.75 86.9766 192.219 86.9766 196.672 87.0703C196.828 86.6953 196.828 86.3125 196.672 85.9219ZM197.539 85.0547C197.789 86.0234 197.789 86.9688 197.539 87.8906C192.508 87.7344 187.469 87.7344 182.422 87.8906C182.156 86.9688 182.156 86.0234 182.422 85.0547C184.969 84.8047 186.258 84.3281 186.289 83.625C186.492 79.25 186.508 74.8203 186.336 70.3359C185.289 70.0234 183.984 69.8203 182.422 69.7266C182.062 68.7891 182.062 67.7969 182.422 66.75C184.781 66.625 187.438 65.9219 190.391 64.6406C192.078 64.7656 193.336 65.2734 194.164 66.1641C194.102 73.8516 194.164 79.6719 194.352 83.625C194.398 84.3281 195.461 84.8047 197.539 85.0547ZM212.398 67.2188C214.008 67.2188 215.281 67.9922 216.219 69.5391C217.172 71.0703 217.648 73.4531 217.648 76.6875C217.648 79.9219 217.172 82.3047 216.219 83.8359C215.281 85.3672 214.008 86.1328 212.398 86.1328C211.508 86.1328 210.695 85.9453 209.961 85.5703C209.242 85.1953 208.625 84.6172 208.109 83.8359C207.609 83.0547 207.219 82.0781 206.938 80.9062C206.656 79.7188 206.516 78.3125 206.516 76.6875C206.516 75.0781 206.656 73.6797 206.938 72.4922C207.219 71.2891 207.609 70.3047 208.109 69.5391C208.625 68.7578 209.242 68.1797 209.961 67.8047C210.695 67.4141 211.508 67.2188 212.398 67.2188ZM212.398 87.6797C213.852 87.6797 215.156 87.4062 216.312 86.8594C217.469 86.3125 218.453 85.5547 219.266 84.5859C220.094 83.6016 220.727 82.4375 221.164 81.0938C221.602 79.75 221.82 78.2812 221.82 76.6875C221.82 75.0938 221.602 73.625 221.164 72.2812C220.727 70.9375 220.094 69.7812 219.266 68.8125C218.453 67.8281 217.469 67.0625 216.312 66.5156C215.156 65.9688 213.852 65.6953 212.398 65.6953C210.852 65.6953 209.453 65.9688 208.203 66.5156C206.953 67.0625 205.891 67.8203 205.016 68.7891C204.156 69.7578 203.492 70.9219 203.023 72.2812C202.555 73.625 202.32 75.0938 202.32 76.6875C202.32 78.2969 202.555 79.7734 203.023 81.1172C203.492 82.4609 204.156 83.625 205.016 84.6094C205.891 85.5781 206.953 86.3359 208.203 86.8828C209.453 87.4141 210.852 87.6797 212.398 87.6797ZM213.219 64.7344C215.109 64.7344 216.789 65.0234 218.258 65.6016C219.742 66.1797 220.992 67 222.008 68.0625C223.023 69.1094 223.797 70.3672 224.328 71.8359C224.859 73.3047 225.125 74.9219 225.125 76.6875C225.125 78.4375 224.859 80.0469 224.328 81.5156C223.797 82.9844 223.023 84.25 222.008 85.3125C221.008 86.3594 219.766 87.1719 218.281 87.75C216.797 88.3438 215.109 88.6406 213.219 88.6406C211.344 88.6406 209.664 88.3438 208.18 87.75C206.711 87.1719 205.469 86.3594 204.453 85.3125C203.453 84.25 202.688 82.9922 202.156 81.5391C201.625 80.0703 201.359 78.4531 201.359 76.6875C201.359 74.9219 201.625 73.3047 202.156 71.8359C202.688 70.3672 203.461 69.1094 204.477 68.0625C205.492 67 206.734 66.1797 208.203 65.6016C209.672 65.0234 211.344 64.7344 213.219 64.7344ZM209.82 76.6875C209.82 81.7344 210.953 84.5312 213.219 85.0781C215.531 84.5312 216.688 81.7344 216.688 76.6875C216.688 71.6875 215.531 68.8828 213.219 68.2734C210.953 68.8828 209.82 71.6875 209.82 76.6875ZM279.383 86.0391C278.508 85.9922 277.656 85.9297 276.828 85.8516C276.016 85.7578 275.273 85.6328 274.602 85.4766C273.93 85.3203 273.359 85.1172 272.891 84.8672C272.438 84.6016 272.141 84.2734 272 83.8828L259.039 51.8672C258.773 51.8828 258.516 51.9922 258.266 52.1953C258.156 54.1328 257.562 55.6875 256.484 56.8594L257.023 58.2422L247.133 83.1094C246.508 84.6719 244.586 85.6484 241.367 86.0391C241.273 86.2578 241.227 86.4531 241.227 86.625C241.227 86.8125 241.273 87 241.367 87.1875C243.148 87.125 244.578 87.0781 245.656 87.0469C246.75 87.0156 247.5 87 247.906 87C248.266 87 249.078 87.0156 250.344 87.0469C251.625 87.0781 253.359 87.125 255.547 87.1875C255.641 87 255.688 86.8125 255.688 86.625C255.688 86.4531 255.641 86.2578 255.547 86.0391C254.25 85.9141 253.195 85.7812 252.383 85.6406C251.57 85.4844 250.938 85.3203 250.484 85.1484C250.031 84.9766 249.727 84.7891 249.57 84.5859C249.414 84.3672 249.336 84.125 249.336 83.8594C249.336 83.6875 249.367 83.5156 249.43 83.3438L252.852 74.7656C254.586 74.7344 255.984 74.7109 257.047 74.6953C258.125 74.6797 258.867 74.6719 259.273 74.6719C260.164 74.6719 260.953 74.6797 261.641 74.6953C262.344 74.6953 262.945 74.7031 263.445 74.7188L266.844 83.3438C266.922 83.5781 266.961 83.7578 266.961 83.8828C266.961 84.3047 266.742 84.6797 266.305 85.0078C265.883 85.3359 265.359 85.5625 264.734 85.6875L262.203 86.0391C262.109 86.2578 262.062 86.4531 262.062 86.625C262.062 86.8125 262.109 87 262.203 87.1875C263.531 87.1406 264.875 87.1016 266.234 87.0703C267.609 87.0391 269.016 87.0234 270.453 87.0234C271.891 87.0234 273.344 87.0391 274.812 87.0703C276.297 87.1016 277.82 87.1406 279.383 87.1875C279.492 86.9688 279.547 86.7812 279.547 86.625C279.547 86.5312 279.531 86.4375 279.5 86.3438C279.469 86.25 279.43 86.1484 279.383 86.0391ZM259.273 72.8438C257.008 72.8438 255.141 72.8125 253.672 72.75L258.125 61.2656H258.219L262.695 72.7969C261.852 72.8281 260.711 72.8438 259.273 72.8438ZM258.172 63.7266L255.055 71.8359C256.945 71.9297 259.023 71.9453 261.289 71.8828L258.172 63.7266ZM280.109 85.1719C280.5 86.1094 280.484 87.1016 280.062 88.1484H261.477C261.102 87.0703 261.102 86.0781 261.477 85.1719C263.18 85.0781 264.383 84.9062 265.086 84.6562C265.789 84.3906 266.031 83.9688 265.812 83.3906L262.742 75.6328C259.852 75.5234 256.758 75.5547 253.461 75.7266L250.438 83.4844C250.344 83.75 250.414 83.9922 250.648 84.2109C250.898 84.4141 251.297 84.5781 251.844 84.7031C252.391 84.8281 253.031 84.9297 253.766 85.0078C254.5 85.0859 255.328 85.1406 256.25 85.1719C256.641 86.1094 256.625 87.1016 256.203 88.1484C251.078 87.9609 245.914 87.9609 240.711 88.1484C240.289 87.1016 240.273 86.1094 240.664 85.1719C243.883 84.7969 245.703 84.0938 246.125 83.0625L256.016 58.1953C255.953 58.0703 255.828 57.7891 255.641 57.3516C255.469 56.8984 255.367 56.6016 255.336 56.4609C256.555 55.2266 257.227 53.6328 257.352 51.6797C258.727 51.0078 260.344 50.625 262.203 50.5312L275.352 83.1562C275.648 83.8906 276.117 84.3828 276.758 84.6328C277.398 84.8672 278.516 85.0469 280.109 85.1719ZM280.156 65.3438C285.016 65.5156 289.875 65.5156 294.734 65.3438C295.094 66.4062 295.094 67.3516 294.734 68.1797C293.719 68.3359 293.039 68.5234 292.695 68.7422C292.367 68.9453 292.297 69.3203 292.484 69.8672L295.039 76.7344L297.922 69.8672C298.172 69.2891 298.148 68.9062 297.852 68.7188C297.57 68.5156 296.922 68.3359 295.906 68.1797C295.547 67.2266 295.547 66.2812 295.906 65.3438C299.203 65.4375 302.477 65.4375 305.727 65.3438C306.086 66.2812 306.086 67.2266 305.727 68.1797C304.555 68.2734 303.719 68.4531 303.219 68.7188C302.719 68.9688 302.344 69.3828 302.094 69.9609L293.844 88.6406H291.383L284.047 69.9141C283.812 69.3672 283.398 68.9766 282.805 68.7422C282.227 68.4922 281.344 68.3047 280.156 68.1797C279.797 67.2266 279.797 66.2812 280.156 65.3438ZM294.031 66.2109C289.641 66.3672 285.258 66.3672 280.883 66.2109C280.711 66.6328 280.711 67 280.883 67.3125C282.055 67.4531 282.945 67.6641 283.555 67.9453C284.164 68.2266 284.633 68.7734 284.961 69.5859L292.062 87.6797H293.211L301.227 69.5859C301.898 68.1641 303.164 67.4062 305.023 67.3125C305.18 67 305.18 66.6328 305.023 66.2109C302.242 66.3047 299.438 66.3047 296.609 66.2109C296.453 66.6328 296.453 67 296.609 67.3125C297.219 67.3438 297.703 67.4219 298.062 67.5469C298.438 67.6562 298.773 67.8828 299.07 68.2266C299.383 68.5547 299.383 69.0078 299.07 69.5859L293.633 82.4297L288.992 69.5859C288.82 69.1641 288.82 68.8125 288.992 68.5312C289.18 68.2344 289.547 68.0078 290.094 67.8516C290.641 67.6953 291.195 67.5859 291.758 67.5234C292.336 67.4453 293.094 67.375 294.031 67.3125C294.188 67 294.188 66.6328 294.031 66.2109ZM315.125 54.0703C318.656 54.0703 320.422 55.3516 320.422 57.9141C320.422 60.4766 318.656 61.7578 315.125 61.7578C314.594 61.7578 314.094 61.6562 313.625 61.4531C313.172 61.25 312.773 60.9766 312.43 60.6328C312.086 60.2734 311.812 59.8594 311.609 59.3906C311.406 58.9219 311.305 58.4297 311.305 57.9141C311.305 57.3984 311.406 56.9062 311.609 56.4375C311.812 55.9688 312.086 55.5625 312.43 55.2188C312.773 54.8594 313.172 54.5781 313.625 54.375C314.094 54.1719 314.594 54.0703 315.125 54.0703ZM312.969 55.8984C312.5 56.4453 312.266 57.1172 312.266 57.9141C312.266 58.3203 312.328 58.7031 312.453 59.0625C312.594 59.4062 312.781 59.7109 313.016 59.9766C313.25 60.2266 313.516 60.4297 313.812 60.5859C314.125 60.7266 314.453 60.7969 314.797 60.7969C315.125 60.7969 315.445 60.7266 315.758 60.5859C316.07 60.4297 316.344 60.2266 316.578 59.9766C316.812 59.7109 317 59.4062 317.141 59.0625C317.281 58.7031 317.352 58.3203 317.352 57.9141C317.352 57.5078 317.281 57.1328 317.141 56.7891C317 56.4297 316.812 56.125 316.578 55.875C316.344 55.6094 316.07 55.4062 315.758 55.2656C315.445 55.1094 315.125 55.0312 314.797 55.0312C314.469 55.0312 314.148 55.1016 313.836 55.2422C313.523 55.3828 313.234 55.6016 312.969 55.8984ZM322.438 85.9219C318.719 85.5781 316.844 84.8281 316.812 83.6719C316.656 78.9844 316.594 73.2266 316.625 66.3984C316.5 66.1484 316.227 65.9453 315.805 65.7891C313.633 66.8047 311.375 67.4453 309.031 67.7109C308.938 68.0859 308.938 68.4531 309.031 68.8125C310.797 68.9062 312.141 69.2266 313.062 69.7734C313.203 75.6016 313.188 80.2344 313.016 83.6719C312.984 84.8281 311.656 85.5781 309.031 85.9219C308.875 86.3125 308.875 86.6953 309.031 87.0703C313.516 86.9766 317.984 86.9766 322.438 87.0703C322.594 86.6953 322.594 86.3125 322.438 85.9219ZM323.305 85.0547C323.555 86.0234 323.555 86.9688 323.305 87.8906C318.273 87.7344 313.234 87.7344 308.188 87.8906C307.922 86.9688 307.922 86.0234 308.188 85.0547C310.734 84.8047 312.023 84.3281 312.055 83.625C312.258 79.25 312.273 74.8203 312.102 70.3359C311.055 70.0234 309.75 69.8203 308.188 69.7266C307.828 68.7891 307.828 67.7969 308.188 66.75C310.547 66.625 313.203 65.9219 316.156 64.6406C317.844 64.7656 319.102 65.2734 319.93 66.1641C319.867 73.8516 319.93 79.6719 320.117 83.625C320.164 84.3281 321.227 84.8047 323.305 85.0547ZM340.484 85.9219C336.766 85.5781 334.891 84.8281 334.859 83.6719C334.703 75.0156 334.641 64.4609 334.672 52.0078C334.547 51.7578 334.273 51.5469 333.852 51.375C331.68 52.4062 329.422 53.0469 327.078 53.2969C326.984 53.6875 326.984 54.0547 327.078 54.3984C328.844 54.5078 330.188 54.8281 331.109 55.3594C331.234 67.1094 331.219 76.5469 331.062 83.6719C331.031 84.8281 329.703 85.5781 327.078 85.9219C326.922 86.3125 326.922 86.6953 327.078 87.0703C330.703 86.9453 335.172 86.9453 340.484 87.0703C340.641 86.6953 340.641 86.3125 340.484 85.9219ZM341.328 85.0547C341.594 86.0234 341.594 86.9688 341.328 87.8906C335.312 87.7656 330.273 87.7656 326.211 87.8906C325.961 86.9688 325.961 86.0234 326.211 85.0547C328.773 84.8047 330.07 84.3281 330.102 83.625C330.289 74.4531 330.305 65.2266 330.148 55.9453C329.102 55.6172 327.789 55.4062 326.211 55.3125C325.867 54.3906 325.867 53.3984 326.211 52.3359C328.586 52.2109 331.242 51.5078 334.18 50.2266C335.883 50.3516 337.148 50.8672 337.977 51.7734C337.914 65.6953 337.977 76.3125 338.164 83.625C338.195 84.3281 339.25 84.8047 341.328 85.0547ZM356.023 67.2188C357.273 67.2188 358.18 67.625 358.742 68.4375C359.305 69.2344 359.586 70.2344 359.586 71.4375C359.586 71.8906 359.508 72.4062 359.352 72.9844H350.211C350.695 71.0312 351.477 69.5859 352.555 68.6484C353.648 67.6953 354.805 67.2188 356.023 67.2188ZM349.977 74.5781H362.75C363 73.7969 363.125 72.9922 363.125 72.1641C363.125 70.3359 362.602 68.8047 361.555 67.5703C360.523 66.3203 358.875 65.6953 356.609 65.6953C353.656 65.6953 351.172 66.7656 349.156 68.9062C347.141 71.0469 346.133 73.7656 346.133 77.0625C346.133 80.5781 347.094 83.2266 349.016 85.0078C350.938 86.7891 353.195 87.6797 355.789 87.6797C357.711 87.6797 359.492 87.1641 361.133 86.1328C362.789 85.0859 364 83.5156 364.766 81.4219C364.547 81.1719 364.242 81 363.852 80.9062C363.789 81 363.602 81.2578 363.289 81.6797C362.992 82.0859 362.773 82.3828 362.633 82.5703C362.492 82.7422 362.234 83 361.859 83.3438C361.5 83.6719 361.148 83.9141 360.805 84.0703C360.477 84.2266 360.055 84.3828 359.539 84.5391C359.023 84.6797 358.461 84.75 357.852 84.75C355.445 84.75 353.531 84.0391 352.109 82.6172C350.688 81.1797 349.945 79.25 349.883 76.8281C349.883 76.2812 349.914 75.5312 349.977 74.5781ZM363.477 79.8047C364.461 80.0234 365.258 80.5156 365.867 81.2812C364.977 83.7188 363.602 85.5547 361.742 86.7891C359.883 88.0234 357.898 88.6406 355.789 88.6406C352.914 88.6406 350.422 87.6719 348.312 85.7344C346.219 83.7969 345.172 80.9062 345.172 77.0625C345.172 73.5781 346.242 70.6562 348.383 68.2969C350.539 65.9219 353.586 64.7344 357.523 64.7344C363.477 64.7344 366.453 67.2109 366.453 72.1641C366.453 73.1328 366.227 74.2578 365.773 75.5391H353.188V77.0625C353.266 78.9531 353.781 80.4922 354.734 81.6797C355.688 82.8516 357 83.5391 358.672 83.7422C359.656 83.6484 360.469 83.3125 361.109 82.7344C361.75 82.1562 362.539 81.1797 363.477 79.8047ZM358.625 71.4375C358.625 69.7188 358.047 68.6797 356.891 68.3203C355.516 68.7422 354.492 69.9766 353.82 72.0234H358.578C358.578 71.9609 358.586 71.8672 358.602 71.7422C358.617 71.6172 358.625 71.5156 358.625 71.4375ZM374.656 87.2812C373.906 87.5312 373.172 87.8359 372.453 88.1953C371.719 87.7422 371.234 87.2812 371 86.8125C371.031 86.7188 371.078 86.3984 371.141 85.8516C371.203 85.3047 371.266 84.6641 371.328 83.9297C371.406 83.1953 371.469 82.4375 371.516 81.6562C371.562 80.875 371.586 80.2109 371.586 79.6641C372.32 79.3203 373.453 79.1484 374.984 79.1484C375.156 79.1484 375.328 79.1484 375.5 79.1484C375.672 79.1484 375.852 79.1562 376.039 79.1719C377.164 82.8281 378.703 84.8125 380.656 85.125C381.453 85 382.062 84.7109 382.484 84.2578C382.922 83.7891 383.141 83.2656 383.141 82.6875C383.141 82.2656 383.023 81.875 382.789 81.5156C382.555 81.1406 382.242 80.7969 381.852 80.4844C381.461 80.1719 381 79.8828 380.469 79.6172C379.953 79.3516 379.406 79.0938 378.828 78.8438C378.25 78.5781 377.664 78.3281 377.07 78.0938C376.477 77.8438 375.906 77.5859 375.359 77.3203C374.781 77.0547 374.234 76.7344 373.719 76.3594C373.203 75.9688 372.75 75.5312 372.359 75.0469C371.969 74.5469 371.656 74 371.422 73.4062C371.203 72.8125 371.094 72.1719 371.094 71.4844C371.094 70.75 371.219 69.9844 371.469 69.1875C371.719 68.3906 372.148 67.6641 372.758 67.0078C373.367 66.3516 374.188 65.8125 375.219 65.3906C376.25 64.9531 377.547 64.7344 379.109 64.7344C380.844 64.7344 382.125 64.8281 382.953 65.0156L383.82 64.7344H385.414C385.617 66.0625 385.859 67.3047 386.141 68.4609C386.438 69.6172 386.766 70.6953 387.125 71.6953C386.453 72.3672 385.641 72.7031 384.688 72.7031C384.156 72.0781 383.664 71.5156 383.211 71.0156C382.758 70.5 382.32 70.0547 381.898 69.6797C381.492 69.3047 381.086 69 380.68 68.7656C380.289 68.5312 379.883 68.3672 379.461 68.2734C378.43 68.4453 377.914 68.9141 377.914 69.6797C377.914 70.2891 378.18 70.8203 378.711 71.2734C379.242 71.7266 379.906 72.1406 380.703 72.5156C381.5 72.8906 382.367 73.25 383.305 73.5938C384.258 73.9219 385.156 74.2734 386 74.6484C386.609 74.9141 387.18 75.2578 387.711 75.6797C388.258 76.1016 388.734 76.5938 389.141 77.1562C389.547 77.7031 389.867 78.3203 390.102 79.0078C390.336 79.6797 390.453 80.4062 390.453 81.1875C390.453 82.3438 390.156 83.3828 389.562 84.3047C388.984 85.2266 388.211 86.0078 387.242 86.6484C386.289 87.2891 385.195 87.7812 383.961 88.125C382.727 88.4688 381.469 88.6406 380.188 88.6406C377.984 88.6406 376.141 88.1875 374.656 87.2812ZM380.023 87.6797C381.977 87.6797 383.648 87.1016 385.039 85.9453C386.43 84.7891 387.125 83.4922 387.125 82.0547C387.125 80.6484 386.695 79.4375 385.836 78.4219C384.977 77.3906 383.938 76.5938 382.719 76.0312C381.5 75.4688 380.273 74.9531 379.039 74.4844C377.805 74 376.758 73.4375 375.898 72.7969C375.039 72.1562 374.609 71.4062 374.609 70.5469C374.609 69.4531 375.016 68.625 375.828 68.0625C376.641 67.5 377.594 67.2188 378.688 67.2188C379.844 67.2188 380.875 67.5781 381.781 68.2969C382.688 69.0156 383.797 70.1641 385.109 71.7422C385.531 71.7422 385.836 71.6406 386.023 71.4375C385.445 69.7812 384.586 68.4141 383.445 67.3359C382.32 66.2422 380.875 65.6953 379.109 65.6953C376.594 65.6953 374.789 66.2969 373.695 67.5C372.602 68.6875 372.055 70.0156 372.055 71.4844C372.055 72.7344 372.469 73.8047 373.297 74.6953C374.141 75.5703 375.148 76.25 376.32 76.7344C377.508 77.2031 378.688 77.6719 379.859 78.1406C381.031 78.6094 382.031 79.2188 382.859 79.9688C383.688 80.7188 384.102 81.625 384.102 82.6875C384.102 83.5781 383.719 84.375 382.953 85.0781C382.188 85.7812 381.117 86.1328 379.742 86.1328C378.086 86.1328 376.805 85.6094 375.898 84.5625C375.008 83.5 374.258 82.0234 373.648 80.1328C373.102 80.1328 372.734 80.1797 372.547 80.2734C372.547 81.3984 372.492 82.6875 372.383 84.1406C372.273 85.5938 372.164 86.4531 372.055 86.7188C372.164 86.875 372.312 87.0156 372.5 87.1406C373.141 86.6875 373.633 86.2109 373.977 85.7109C375.352 86.4766 376.422 86.9922 377.188 87.2578C377.969 87.5391 378.914 87.6797 380.023 87.6797Z" fill="black"/>
</svg>
